<?xml version="1.0" standalone="no"?>
<!DOCTYPE svg PUBLIC "-//W3C//DTD SVG 20010904//EN"
 "http://www.w3.org/TR/2001/REC-SVG-20010904/DTD/svg10.dtd">
<svg version="1.0" xmlns="http://www.w3.org/2000/svg"
 width="225.000000pt" height="225.000000pt" viewBox="0 0 225.000000 225.000000"
 preserveAspectRatio="xMidYMid meet">

<g transform="translate(0.000000,225.000000) scale(0.100000,-0.100000)"
fill="white" stroke="none">
<path d="M1030 2179 c-47 -22 -258 -124 -470 -226 -212 -102 -393 -194 -403
-205 -16 -19 -17 -62 -17 -602 l0 -583 22 -20 c41 -36 932 -528 958 -528 26 0
917 492 958 528 l22 20 0 583 c0 540 -1 583 -17 602 -15 17 -895 449 -951 466
-10 4 -53 -11 -102 -35z m488 -240 c218 -105 414 -200 436 -211 l38 -20 -433
-229 -434 -230 -35 16 c-19 9 -195 101 -390 205 -195 103 -377 199 -405 213
l-50 25 125 60 c69 33 265 128 435 211 171 82 311 150 313 150 1 1 181 -85
400 -190z m-720 -574 l302 -160 0 -547 0 -546 -317 177 c-175 97 -373 208
-440 246 l-123 69 0 533 0 533 138 -72 c76 -40 274 -145 440 -233z m1220 -231
l-3 -536 -370 -207 c-203 -114 -400 -224 -438 -244 l-67 -38 2 551 3 551 430
229 c237 126 433 229 438 229 4 1 6 -240 5 -535z"/>
<path d="M1825 1438 c-81 -42 -75 -3 -75 -458 0 -224 3 -410 6 -413 4 -3 33 8
65 26 l59 32 0 418 c0 229 -3 417 -7 417 -5 -1 -26 -10 -48 -22z m15 -433 l0
-374 -30 -16 -30 -16 0 379 0 379 23 11 c12 6 25 11 30 11 4 1 7 -168 7 -374z"/>
<path d="M1598 1316 l-58 -31 0 -417 c0 -230 4 -418 8 -418 5 0 34 14 65 31
l57 31 0 413 c0 228 -3 416 -7 418 -5 2 -34 -10 -65 -27z m22 -431 l0 -374
-30 -16 -30 -16 0 379 0 379 23 11 c12 6 25 11 30 11 4 1 7 -168 7 -374z"/>
<path d="M1378 1187 l-58 -32 0 -417 c0 -245 4 -418 9 -418 5 0 34 14 65 32
l56 32 0 413 c0 226 -3 414 -8 416 -4 3 -33 -9 -64 -26z m22 -430 l0 -373 -30
-17 -30 -18 0 379 0 379 23 11 c12 6 25 11 30 11 4 1 7 -167 7 -372z"/>
</g>
</svg>
