<?xml version="1.0" standalone="no"?>
<!DOCTYPE svg PUBLIC "-//W3C//DTD SVG 20010904//EN"
 "http://www.w3.org/TR/2001/REC-SVG-20010904/DTD/svg10.dtd">
<svg version="1.0" xmlns="http://www.w3.org/2000/svg"
 width="360.000000pt" height="360.000000pt" viewBox="0 0 360.000000 360.000000"
 preserveAspectRatio="xMidYMid meet">
<metadata>
Created by potrace 1.14, written by Peter Selinger 2001-2017
</metadata>
<g transform="translate(0.000000,360.000000) scale(0.100000,-0.100000)"
fill="#000000" stroke="none">
<path d="M1678 2715 c-2 -2 -30 -5 -63 -8 -221 -20 -546 -138 -790 -287 -165
-101 -436 -301 -416 -308 5 -2 39 15 75 37 190 117 443 221 671 278 132 33
354 47 463 29 230 -38 429 -198 516 -416 10 -25 20 -54 22 -65 64 -287 -27
-548 -249 -712 -27 -20 -45 -39 -40 -44 16 -15 170 -41 263 -43 318 -9 679
121 1080 390 85 57 190 133 233 168 l79 65 -59 62 c-336 355 -753 638 -1123
761 -141 47 -202 62 -335 84 -40 6 -322 14 -327 9z"/>
<path d="M1428 2426 c-1 -2 -39 -6 -83 -10 -76 -6 -91 -8 -160 -22 -261 -53
-585 -208 -885 -423 -108 -78 -129 -94 -189 -148 l-36 -31 120 -119 c101 -101
181 -172 290 -262 173 -141 461 -314 670 -401 90 -37 263 -89 345 -104 19 -3
46 -8 60 -11 43 -9 172 -18 245 -18 312 0 682 119 1010 324 145 90 407 288
382 289 -4 0 -49 -24 -101 -54 -185 -107 -454 -223 -582 -251 -10 -2 -59 -13
-109 -25 -116 -26 -307 -36 -412 -21 -178 26 -334 117 -438 256 -175 233 -182
531 -21 774 46 68 122 145 179 179 15 9 27 19 27 23 0 12 -130 40 -209 45 -42
3 -81 7 -88 9 -6 2 -13 2 -15 1z"/>
</g>
</svg>
